<svg width="21" height="18" viewBox="0 0 21 18" fill="none" xmlns="http://www.w3.org/2000/svg">
<g id="Vector 8">
<path d="M10.5 1C1.5 1 1.5 5.5 1.5 5.5H6H10.5H19.5C19.5 5.5 19.5 1 10.5 1Z" fill="black"/>
<path d="M19.5 15V13.5H10.5H1.5V15C1.5 16.1046 2.39543 17 3.5 17H10.5H17.5C18.6046 17 19.5 16.1046 19.5 15Z" fill="black"/>
<path d="M10.5 8H2C1.17157 8 0.5 8.67157 0.5 9.5C0.5 10.3284 1.17157 11 2 11H10.5H19C19.8284 11 20.5 10.3284 20.5 9.5C20.5 8.67157 19.8284 8 19 8H15.5H10.5Z" fill="black"/>
<path d="M10.5 1C1.5 1 1.5 5.5 1.5 5.5H6H10.5H19.5C19.5 5.5 19.5 1 10.5 1Z" stroke="black"/>
<path d="M19.5 15V13.5H10.5H1.5V15C1.5 16.1046 2.39543 17 3.5 17H10.5H17.5C18.6046 17 19.5 16.1046 19.5 15Z" stroke="black"/>
<path d="M10.5 8H2C1.17157 8 0.5 8.67157 0.5 9.5C0.5 10.3284 1.17157 11 2 11H10.5H19C19.8284 11 20.5 10.3284 20.5 9.5C20.5 8.67157 19.8284 8 19 8H15.5H10.5Z" stroke="black"/>
</g>
</svg>
