<svg width="19" height="19" viewBox="0 0 19 19" fill="none" xmlns="http://www.w3.org/2000/svg">
<g id="Group 4">
<ellipse id="Ellipse 26" cx="15.0357" cy="3.21429" rx="3.30357" ry="3.21429" fill="black"/>
<ellipse id="Ellipse 25" cx="4.46428" cy="3.21429" rx="3.30357" ry="3.21429" fill="black"/>
<path id="Rectangle 41" d="M0.5 8.22859C0.5 8.22859 0.5 6.42859 4.46429 6.42859C8.42857 6.42859 8.42857 8.22859 8.42857 8.22859V15.4286H5.25714H0.5V8.22859Z" fill="black"/>
<path id="Rectangle 42" d="M11.0714 8.22859C11.0714 8.22859 11.0714 6.42859 15.0357 6.42859C19 6.42859 19 8.22859 19 8.22859V15.4286H15.8286H11.0714V8.22859Z" fill="black"/>
<path id="Rectangle 39" d="M14.375 18.25H14.625V18V10.2857H14.375C14.625 10.2857 14.625 10.2855 14.625 10.2853L14.625 10.2847L14.625 10.2835L14.6249 10.2803L14.6247 10.2711C14.6245 10.2637 14.6241 10.2539 14.6234 10.2419C14.622 10.2178 14.6192 10.1845 14.6139 10.1434C14.6034 10.0612 14.5827 9.94726 14.5422 9.81215C14.4611 9.5415 14.3002 9.18588 13.9828 8.83284C13.3427 8.1211 12.1083 7.46429 9.74999 7.46429C7.3917 7.46429 6.1573 8.1211 5.51723 8.83284C5.19974 9.18588 5.03892 9.5415 4.95779 9.81215C4.91728 9.94726 4.89662 10.0612 4.88606 10.1434C4.88078 10.1845 4.87802 10.2178 4.87657 10.2419C4.87585 10.2539 4.87545 10.2637 4.87524 10.2711L4.87504 10.2803L4.875 10.2835L4.87499 10.2847L4.87499 10.2853C4.87499 10.2855 4.87499 10.2857 5.12499 10.2857H4.87499V18V18.25H5.12499H14.375Z" fill="black" stroke="white" stroke-width="0.5"/>
<path id="Ellipse 24" d="M13.4643 3.85714C13.4643 5.8429 11.8078 7.46429 9.75 7.46429C7.69215 7.46429 6.03571 5.8429 6.03571 3.85714C6.03571 1.87139 7.69215 0.25 9.75 0.25C11.8078 0.25 13.4643 1.87139 13.4643 3.85714Z" fill="black" stroke="white" stroke-width="0.5"/>
</g>
</svg>
