<svg width="25" height="25" viewBox="0 0 25 25" fill="none" xmlns="http://www.w3.org/2000/svg">
<g id="Step by step icon">
<circle id="Ellipse 19" cx="6" cy="5" r="1.75" fill="white" stroke="black" stroke-width="0.5"/>
<path id="Ellipse 22" d="M13.25 19C13.25 19.9665 12.4665 20.75 11.5 20.75C10.5335 20.75 9.75 19.9665 9.75 19C9.75 18.0335 10.5335 17.25 11.5 17.25C12.4665 17.25 13.25 18.0335 13.25 19Z" fill="white" stroke="black" stroke-width="0.5"/>
<circle id="Ellipse 20" cx="15.5" cy="5" r="1.75" fill="white" stroke="black" stroke-width="0.5"/>
<circle id="Ellipse 23" cx="20" cy="19" r="1.75" fill="white" stroke="black" stroke-width="0.5"/>
<circle id="Ellipse 21" cx="9.5" cy="12" r="1.75" fill="white" stroke="black" stroke-width="0.5"/>
<path id="Vector 26" d="M8 5H13" stroke="black" stroke-width="0.5"/>
<path id="Vector 27" d="M11.5 3.5L13 5L11.5 6.5" stroke="black" stroke-width="0.5"/>
<path id="Vector 30" d="M13 19H17.5" stroke="black" stroke-width="0.5"/>
<path id="Vector 31" d="M16 17.5L17.5 19L16 20.5" stroke="black" stroke-width="0.5"/>
<path id="Vector 28" d="M17 5C17 5 22 5 22 8.5C22 12 17 12 17 12H12M12 12L13.5 10.5M12 12L13.5 13.5" stroke="black" stroke-width="0.5"/>
<path id="Vector 29" d="M8.01781 12.0209C8.01781 12.0209 3.01781 12.0209 3.01781 15.5209C3.01781 19.0209 8.01781 19.0209 8.01781 19.0209L9 19M9 19L7.51781 17.5M9 19L7.51781 20.5209" stroke="black" stroke-width="0.5"/>
</g>
</svg>
